<svg version="1.1" xmlns="http://www.w3.org/2000/svg" xmlns:xlink="http://www.w3.org/1999/xlink" width="400px" height="400px" viewBox="0,0,256,256"><g fill="#00b96b" fill-rule="nonzero" stroke="none" stroke-width="1" stroke-linecap="butt" stroke-linejoin="miter" stroke-miterlimit="10" stroke-dasharray="" stroke-dashoffset="0" font-family="none" font-weight="none" font-size="none" text-anchor="none" style="mix-blend-mode: normal"><g transform="scale(0.64,0.64)"><g><g><g><rect x="-201.10579" y="-233.38003" transform="rotate(-149.99927) scale(0.99998,0.99998)" width="16.6" height="320.3"></rect></g></g><g><g><rect x="39.8" y="272.2" width="320.3" height="16.6"></rect></g></g><g><g><rect x="-365.72622" y="-220.74202" transform="rotate(-149.99927) scale(0.99998,0.99998)" width="185" height="16.6"></rect></g></g><g><g><rect x="-365.71175" y="57.63184" transform="rotate(-149.99927) scale(0.99998,0.99998)" width="185" height="16.6"></rect></g></g><g><g><rect x="-142.32452" y="-19.26093" transform="rotate(-120.00073) scale(0.99998,0.99998)" width="16.6" height="185"></rect></g></g><g><g><rect x="-433.40943" y="145.33913" transform="rotate(-120.00073) scale(0.99998,0.99998)" width="320.3" height="16.6"></rect></g></g><g><g><rect x="52.5" y="107.5" width="16.6" height="185"></rect></g></g><g><g><rect x="330.9" y="107.5" width="16.6" height="185"></rect></g></g><g><g><rect x="-419.60063" y="-7.2499" transform="rotate(-120.00073) scale(0.99998,0.99998)" width="14.5" height="160.9"></rect></g></g><path d="M369.5,297.9c-9.6,16.7 -31,22.4 -47.7,12.8c-16.7,-9.6 -22.4,-31 -12.8,-47.7c9.6,-16.7 31,-22.4 47.7,-12.8c16.8,9.7 22.5,31 12.8,47.7"></path><path d="M90.9,137c-9.6,16.7 -31,22.4 -47.7,12.8c-16.7,-9.6 -22.4,-31 -12.8,-47.7c9.6,-16.7 31,-22.4 47.7,-12.8c16.7,9.7 22.4,31 12.8,47.7"></path><path d="M30.5,297.9c-9.6,-16.7 -3.9,-38 12.8,-47.7c16.7,-9.6 38,-3.9 47.7,12.8c9.6,16.7 3.9,38 -12.8,47.7c-16.8,9.6 -38.1,3.9 -47.7,-12.8"></path><path d="M309.1,137c-9.6,-16.7 -3.9,-38 12.8,-47.7c16.7,-9.6 38,-3.9 47.7,12.8c9.6,16.7 3.9,38 -12.8,47.7c-16.7,9.6 -38.1,3.9 -47.7,-12.8"></path><path d="M200,395.8c-19.3,0 -34.9,-15.6 -34.9,-34.9c0,-19.3 15.6,-34.9 34.9,-34.9c19.3,0 34.9,15.6 34.9,34.9c0,19.2 -15.6,34.9 -34.9,34.9"></path><path d="M200,74c-19.3,0 -34.9,-15.6 -34.9,-34.9c0,-19.3 15.6,-34.9 34.9,-34.9c19.3,0 34.9,15.6 34.9,34.9c0,19.3 -15.6,34.9 -34.9,34.9"></path></g></g></g></svg>