<svg id="Capa_1" data-name="Capa 1" xmlns="http://www.w3.org/2000/svg" viewBox="0 0 438.55 427.82"><defs><style>.cls-1{fill:#00b96b;}</style></defs><path class="cls-1" d="M409.13,109.21a218.21,218.21,0,0,0-79.8-79.8Q278.95,0,219.27,0T109.21,29.41a218.21,218.21,0,0,0-79.8,79.8Q0,159.6,0,219.27q0,71.67,41.83,128.9T149.89,427.4q7.71,1.43,11.42-2a11.18,11.18,0,0,0,3.71-8.56q0-.85-.14-15.42t-.15-25.4l-6.56,1.13a83.73,83.73,0,0,1-15.85,1,120,120,0,0,1-19.84-2,44.21,44.21,0,0,1-19.13-8.56A36.14,36.14,0,0,1,90.79,350l-2.86-6.57a71.27,71.27,0,0,0-9-14.56q-6.14-8-12.42-10.85l-2-1.43a20.93,20.93,0,0,1-3.71-3.43,15.72,15.72,0,0,1-2.57-4c-.57-1.34-.09-2.43,1.43-3.29S64,304.64,68,304.64l5.71.85c3.81.77,8.51,3,14.13,6.85a46.11,46.11,0,0,1,13.85,14.85q6.57,11.7,15.84,17.84t18.7,6.14a81.79,81.79,0,0,0,16.28-1.42,57.34,57.34,0,0,0,12.84-4.29q2.58-19.14,14-29.41A195.71,195.71,0,0,1,150,310.91a116.87,116.87,0,0,1-26.84-11.14,77,77,0,0,1-23-19.13q-9.13-11.42-15-30t-5.85-42.83q0-34.56,22.56-58.82-10.58-26,2-58.24,8.28-2.57,24.56,3.86t23.84,11q7.56,4.56,12.13,7.71a206.22,206.22,0,0,1,109.64,0l10.85-6.85A154,154,0,0,1,311.2,93.92q15.14-5.7,23.14-3.13Q347.18,123,336.62,149q22.54,24.27,22.56,58.81,0,24.27-5.86,43t-15.12,30a79.7,79.7,0,0,1-23.13,19,117.24,117.24,0,0,1-26.84,11.14A196,196,0,0,1,259,316.06q14.85,12.84,14.85,40.53v60.24a11.37,11.37,0,0,0,3.57,8.56q3.57,3.42,11.27,2,66.26-22,108.07-79.23t41.83-128.9Q438.54,159.61,409.13,109.21Z"/></svg>