<svg version="1.1" xmlns="http://www.w3.org/2000/svg" xmlns:xlink="http://www.w3.org/1999/xlink" width="256px" height="288px" viewBox="0,0,227.54688,256"><g fill="#00b96b" fill-rule="evenodd" stroke="none" stroke-width="1" stroke-linecap="butt" stroke-linejoin="miter" stroke-miterlimit="10" stroke-dasharray="" stroke-dashoffset="0" font-family="none" font-weight="none" font-size="none" text-anchor="none" style="mix-blend-mode: normal"><g transform="translate(-0.00434,0.15838) scale(0.88889,0.88889)"><g><path d="M152.576,32.96345l59.14606,34.149c1.66545,-1.76411 3.6108,-3.32173 5.81768,-4.60357c12.26672,-7.05153 27.9123,-2.86468 35.03729,9.40204c7.05153,12.26672 2.86468,27.9123 -9.40204,35.03729c-2.19001,1.25893 -4.49005,2.15964 -6.83117,2.72012v68.3247c2.31577,0.56166 4.59062,1.45667 6.75772,2.70242c12.34018,7.12498 16.52702,22.77056 9.40204,35.03729c-7.05153,12.26672 -22.77056,16.45357 -35.03729,9.40204c-2.44218,-1.40389 -4.56409,-3.15132 -6.34082,-5.14667l-58.78529,33.9407c0.84036,2.53928 1.29509,5.25551 1.29509,8.07959c0,14.10306 -11.45874,25.63525 -25.63525,25.63525c-14.17651,0 -25.63525,-11.45873 -25.63525,-25.63525c0,-2.51991 0.36205,-4.95395 1.03706,-7.25303l-59.13032,-34.13991c-1.64766,1.72948 -3.56609,3.25792 -5.73777,4.51932c-12.34018,7.05153 -27.98576,2.86468 -35.03729,-9.40204c-7.05153,-12.26672 -2.86468,-27.9123 9.40204,-35.03729c2.16887,-1.24677 4.44336,-2.14222 6.75772,-2.7038v-68.32333c-2.34112,-0.56048 -4.64116,-1.4612 -6.83117,-2.72012c-12.26672,-7.05153 -16.45357,-22.77056 -9.40204,-35.03729c7.05153,-12.26672 22.77056,-16.45357 35.03729,-9.40204c2.19487,1.27487 4.13106,2.82252 5.79048,4.5748l59.16202,-34.15821c-0.68204,-2.31001 -1.04801,-4.75672 -1.04801,-7.29022c0,-14.17651 11.45874,-25.63525 25.63525,-25.63525c14.17651,0 25.63525,11.45874 25.63525,25.63525c0,2.54739 -0.36999,5.00703 -1.05925,7.3282zM146.41364,43.48487l59.28692,34.23032c-1.83266,6.4365 -1.16004,13.57337 2.43714,19.83096c3.60891,6.27799 9.48809,10.43963 16.01285,12.0615v68.41019c-0.33251,0.08162 -0.66336,0.16983 -0.99234,0.26458l-77.43291,-134.1138c0.23373,-0.22357 0.46322,-0.45153 0.68835,-0.68375zM110.29093,44.18412l-77.4316,134.11154c-0.33477,-0.09722 -0.67147,-0.18764 -1.00987,-0.27122v-68.41678c6.52476,-1.62187 12.40394,-5.7835 16.01285,-12.0615c3.60429,-6.26997 4.27244,-13.4227 2.42624,-19.86914l59.2702,-34.22067c0.23917,0.24746 0.48328,0.4901 0.73218,0.72778zM135.16275,50.25976l77.41407,134.08117c-1.73258,1.65186 -3.25944,3.57662 -4.51258,5.75655c-1.24576,2.1671 -2.14076,4.44195 -2.70242,6.75772h-154.72226c-0.56158,-2.31435 -1.45702,-4.58885 -2.7038,-6.75772c-1.25809,-2.16599 -2.78183,-4.08005 -4.50573,-5.72482l77.42879,-134.10667c2.26612,0.65408 4.66209,1.0045 7.14118,1.0045c2.48695,0 4.89026,-0.35264 7.16275,-1.01073zM146.95808,244.738l58.90202,-34.0081c-0.17671,-0.55497 -0.33462,-1.1158 -0.47347,-1.68143h-154.77988c-0.08208,0.33232 -0.17076,0.663 -0.26599,0.99183l59.191,34.17494c4.66052,-4.83669 11.20796,-7.84209 18.46822,-7.84209c7.51838,0 14.27235,3.2229 18.95808,8.36485z"></path></g></g></g></svg>